<svg xmlns="http://www.w3.org/2000/svg" version="1.1" xmlns:xlink="http://www.w3.org/1999/xlink" xmlns:svgjs="http://svgjs.dev/svgjs" width="1000" height="750" viewBox="0 0 1000 750"><rect width="1000" height="750" fill="#046380"></rect><g transform="matrix(0.5191111111111111,0,0,0.5191111111111111,240.44444444444446,83)"><svg viewBox="0 0 320 360" data-background-color="#046380" preserveAspectRatio="xMidYMid meet" height="1125" width="1000" xmlns="http://www.w3.org/2000/svg" xmlns:xlink="http://www.w3.org/1999/xlink"><g id="tight-bounds" transform="matrix(1,0,0,1,0,0)"><svg viewBox="0 0 320 360" height="360" width="320"><g><svg></svg></g><g><svg viewBox="0 0 320 360" height="360" width="320"><g><path xmlns="http://www.w3.org/2000/svg" d="M320 141.95l-19.957-19.957v-28.224l-53.812-53.812h-28.223l-19.958-19.957h-76.1l-19.957 19.957h-28.224l-53.812 53.812v28.224l-19.957 19.957v76.104l19.957 19.958v28.223l53.816 53.808h28.224l19.957 19.957h76.104l19.958-19.957h28.223l53.812-53.812v-28.224l19.949-19.957zM244.374 44.437l51.189 51.189v21.887l-73.076-73.076zM295.563 123.849v112.306l-79.408 79.408h-112.306l-79.412-79.412v-112.302l79.412-79.412h112.306zM123.807 24.48h72.39l15.478 15.477h-103.346zM24.437 95.626l51.189-51.189h21.887l-73.076 73.076zM4.484 216.197v-72.394l15.477-15.478v103.342zM75.626 315.563l-51.189-51.189v-21.887l73.076 73.076zM196.197 335.52h-72.39l-15.478-15.477h103.342zM295.563 264.374l-51.189 51.189h-21.887l73.076-73.076zM315.52 216.197l-15.477 15.478v-103.346l15.477 15.478z" fill="#ffffff" fill-rule="nonzero" stroke="none" stroke-width="1" stroke-linecap="butt" stroke-linejoin="miter" stroke-miterlimit="10" stroke-dasharray="" stroke-dashoffset="0" font-family="none" font-weight="none" font-size="none" text-anchor="none" style="mix-blend-mode: normal" data-fill-palette-color="tertiary"></path></g><g transform="matrix(1,0,0,1,56,112.57616904663641)"><svg viewBox="0 0 208 134.84766190672718" height="134.84766190672718" width="208"><g><svg viewBox="0 0 208 134.84766190672718" height="134.84766190672718" width="208"><g transform="matrix(1,0,0,1,0,83.3412648782501)"><svg viewBox="0 0 208 51.50639702847709" height="51.50639702847709" width="208"><g id="textblocktransform"><svg viewBox="0 0 208 51.50639702847709" height="51.50639702847709" width="208" id="textblock"><g><svg viewBox="0 0 208 51.50639702847709" height="51.50639702847709" width="208"><g transform="matrix(1,0,0,1,0,0)"><svg width="208" viewBox="2.2699999809265137 -42.189998626708984 177.45999145507812 43.94999694824219" height="51.50639702847709" data-palette-color="#ffffff"><path d="M31.37 0L31.37-14.75 33.13-18.07 33.13 0 31.37 0ZM34.89 0L34.89-21.48 36.65-24.8 36.65 0 34.89 0ZM38.4 0L38.4-28.13 40.16-31.47 40.16 0 38.4 0ZM39.7-40.43L26.61-15.58 25.61-17.41 37.72-40.43 39.7-40.43ZM35.72-40.43L24.58-19.41 23.56-21.26 33.72-40.43 35.72-40.43ZM12.82 0L12.82-17.87 14.58-14.55 14.58 0 12.82 0ZM9.3 0L9.3-24.56 11.06-21.24 11.06 0 9.3 0ZM5.79 0L5.79-31.25 7.54-27.91 7.54 0 5.79 0ZM4.25-40.43L20-10.55 18.02-10.55 4.03-37.08 4.03 0 2.27 0 2.27-40.43 4.25-40.43ZM8.25-40.43L23.97-10.55 21.97-10.55 6.25-40.43 8.25-40.43ZM41.92 0L41.92-37.08 27.93-10.55 25.93-10.55 10.23-40.43 12.21-40.43 26.95-12.4 41.67-40.43 43.68-40.43 43.68 0 41.92 0ZM62.55-27.05Q59.71-24.22 59.71-20.21 59.71-16.21 62.55-13.38 65.38-10.55 69.38-10.55 73.39-10.55 76.22-13.38 79.05-16.21 79.05-20.21 79.05-24.22 76.22-27.05 73.39-29.88 69.38-29.88 65.38-29.88 62.55-27.05ZM58.86-15.78Q57.96-17.9 57.96-20.21 57.96-22.53 58.86-24.65 59.76-26.76 61.3-28.3 62.84-29.83 64.95-30.74 67.06-31.64 69.38-31.64 71.7-31.64 73.81-30.74 75.93-29.83 77.46-28.3 79-26.76 79.9-24.65 80.81-22.53 80.81-20.21 80.81-17.9 79.9-15.78 79-13.67 77.46-12.13 75.93-10.6 73.81-9.69 71.7-8.79 69.38-8.79 67.06-8.79 64.95-9.69 62.84-10.6 61.3-12.13 59.76-13.67 58.86-15.78ZM57.97-26.83Q56.2-23.8 56.2-20.21 56.2-16.63 57.97-13.6 59.74-10.57 62.77-8.8 65.79-7.03 69.38-7.03 72.97-7.03 76-8.8 79.03-10.57 80.8-13.6 82.57-16.63 82.57-20.21 82.57-23.8 80.8-26.83 79.03-29.86 76-31.63 72.97-33.4 69.38-33.4 65.79-33.4 62.77-31.63 59.74-29.86 57.97-26.83ZM56.44-12.72Q54.44-16.16 54.44-20.21 54.44-24.27 56.44-27.71 58.44-31.15 61.89-33.15 65.33-35.16 69.38-35.16 73.44-35.16 76.88-33.15 80.32-31.15 82.32-27.71 84.32-24.27 84.32-20.21 84.32-16.16 82.32-12.72 80.32-9.28 76.88-7.28 73.44-5.27 69.38-5.27 65.33-5.27 61.89-7.28 58.44-9.28 56.44-12.72ZM54-26.71Q52.68-23.61 52.68-20.21 52.68-16.82 54-13.72 55.32-10.62 57.55-8.39 59.79-6.15 62.89-4.83 65.99-3.52 69.38-3.52 72.78-3.52 75.88-4.83 78.98-6.15 81.21-8.39 83.44-10.62 84.76-13.72 86.08-16.82 86.08-20.21 86.08-23.61 84.76-26.71 83.44-29.81 81.21-32.04 78.98-34.28 75.88-35.6 72.78-36.91 69.38-36.91 65.99-36.91 62.89-35.6 59.79-34.28 57.55-32.04 55.32-29.81 54-26.71ZM53.4-10.96Q50.93-15.21 50.93-20.21 50.93-25.22 53.4-29.47 55.88-33.72 60.13-36.19 64.38-38.67 69.38-38.67 74.39-38.67 78.64-36.19 82.88-33.72 85.36-29.47 87.84-25.22 87.84-20.21 87.84-15.21 85.36-10.96 82.88-6.71 78.64-4.24 74.39-1.76 69.38-1.76 64.38-1.76 60.13-4.24 55.88-6.71 53.4-10.96ZM50.77-28.06Q49.17-24.32 49.17-20.21 49.17-16.11 50.77-12.37 52.37-8.62 55.08-5.91 57.79-3.2 61.53-1.6 65.28 0 69.38 0 73.48 0 77.23-1.6 80.98-3.2 83.69-5.91 86.4-8.62 88-12.37 89.6-16.11 89.6-20.21 89.6-24.32 88-28.06 86.4-31.81 83.69-34.52 80.98-37.23 77.23-38.83 73.48-40.43 69.38-40.43 65.28-40.43 61.53-38.83 57.79-37.23 55.08-34.52 52.37-31.81 50.77-28.06ZM49.16-11.68Q47.41-15.75 47.41-20.21 47.41-24.68 49.16-28.75 50.9-32.81 53.84-35.75 56.78-38.7 60.85-40.44 64.91-42.19 69.38-42.19 73.85-42.19 77.91-40.44 81.98-38.7 84.92-35.75 87.86-32.81 89.61-28.75 91.35-24.68 91.35-20.21 91.35-15.75 89.61-11.68 87.86-7.62 84.92-4.68 81.98-1.73 77.91 0.01 73.85 1.76 69.38 1.76 64.91 1.76 60.85 0.01 56.78-1.73 53.84-4.68 50.9-7.62 49.16-11.68ZM117.33-11.87L109.91-11.87 110.62-13.62 116.62-13.62 117.33-11.87ZM118.75-8.35L108.54-8.35 109.22-10.11 117.99-10.11 118.75-8.35ZM120.11-4.83L107.17-4.83 107.86-6.59 119.38-6.59 120.11-4.83ZM107.93-38.06L92.89 0 90.99 0 106.98-40.43 108.88-40.43 124.85 0 122.97 0 107.93-38.06ZM94.77 0L108.15-33.89 109.15-31.64 96.65 0 94.77 0ZM98.55 0L110.1-29.25 111.03-26.83 100.46 0 98.55 0ZM102.34 0L111.96-24.41 112.89-21.95 104.22 0 102.34 0ZM120.21-40.43L136.2 0 134.3 0 118.33-40.43 120.21-40.43ZM114.55-40.43L116.43-40.43 132.42 0 130.54 0 114.55-40.43ZM110.76-40.43L112.64-40.43 128.63 0 126.73 0 110.76-40.43ZM161.81-10.55L149.82-10.55 149.82-29.88Q149.82-29.88 161.81-29.88L161.81-29.88Q164.71-29.88 166.8-27.04 168.89-24.19 168.89-20.21L168.89-20.21Q168.89-16.21 166.8-13.38 164.71-10.55 161.81-10.55L161.81-10.55ZM151.58-28.13L151.58-12.3 161.81-12.3Q163.98-12.3 165.53-14.62 167.08-16.94 167.08-20.21L167.08-20.21Q167.08-23.51 165.53-25.82 163.98-28.13 161.81-28.13L161.81-28.13 151.58-28.13ZM148.06-31.64L148.06-8.79 161.81-8.79Q165.45-8.79 168.07-12.15 170.7-15.5 170.7-20.21L170.7-20.21Q170.7-23.32 169.49-25.95 168.28-28.59 166.24-30.11 164.2-31.64 161.81-31.64L161.81-31.64 148.06-31.64ZM161.81-7.03L146.31-7.03 146.31-33.4 161.81-33.4Q164.67-33.4 167.13-31.64 169.6-29.88 171.05-26.84 172.5-23.8 172.5-20.21L172.5-20.21Q172.5-16.65 171.05-13.6 169.6-10.55 167.13-8.79 164.67-7.03 161.81-7.03L161.81-7.03ZM144.55-35.16L144.55-5.27 161.81-5.27Q165.15-5.27 168.02-7.28 170.89-9.28 172.6-12.72 174.31-16.16 174.31-20.21L174.31-20.21Q174.31-24.24 172.6-27.7 170.89-31.15 168.01-33.15 165.13-35.16 161.81-35.16L161.81-35.16 144.55-35.16ZM161.81-3.52L142.79-3.52 142.79-36.91 161.81-36.91Q165.62-36.91 168.91-34.68 172.21-32.45 174.16-28.59 176.12-24.73 176.12-20.21 176.12-15.7 174.16-11.84 172.21-7.98 168.91-5.75 165.62-3.52 161.81-3.52L161.81-3.52ZM141.03-38.67L141.03-1.76 161.81-1.76Q165.01-1.76 167.99-3.22 170.96-4.69 173.14-7.15 175.31-9.62 176.62-13.05 177.92-16.48 177.92-20.21 177.92-23.95 176.62-27.37 175.31-30.79 173.14-33.26 170.96-35.74 167.99-37.21 165.01-38.67 161.81-38.67L161.81-38.67 141.03-38.67ZM161.81 0L161.81 0 139.27 0 139.27-40.43 161.81-40.43Q166.57-40.43 170.7-37.72 174.82-35.01 177.28-30.35 179.73-25.68 179.73-20.21L179.73-20.21Q179.73-16.11 178.28-12.37 176.82-8.62 174.41-5.91 171.99-3.2 168.68-1.6 165.37 0 161.81 0Z" opacity="1" transform="matrix(1,0,0,1,0,0)" fill="#ffffff" class="wordmark-text-0" data-fill-palette-color="primary" id="text-0"></path></svg></g></svg></g></svg></g></svg></g><g transform="matrix(1,0,0,1,68.40907965332234,0)"><svg viewBox="0 0 71.18184069335533 71.18184069335534" height="71.18184069335534" width="71.18184069335533"><g><svg></svg></g><g id="icon-0"><svg viewBox="0 0 71.18184069335533 71.18184069335534" height="71.18184069335534" width="71.18184069335533"><g><path xmlns="http://www.w3.org/2000/svg" d="M21.355 71.182c-11.794 0-21.355-9.561-21.355-21.355v-28.472c0-11.794 9.561-21.355 21.355-21.355h28.472c11.794 0 21.355 9.561 21.355 21.355v28.472c0 11.794-9.561 21.355-21.355 21.355z" fill="#ffffff" fill-rule="nonzero" stroke="none" stroke-width="1" stroke-linecap="butt" stroke-linejoin="miter" stroke-miterlimit="10" stroke-dasharray="" stroke-dashoffset="0" font-family="none" font-weight="none" font-size="none" text-anchor="none" style="mix-blend-mode: normal" data-fill-palette-color="accent"></path></g><g transform="matrix(1,0,0,1,21.45358000477197,14.236368138671068)"><svg viewBox="0 0 28.27468068381139 42.709104416013204" height="42.709104416013204" width="28.27468068381139"><g><svg xmlns="http://www.w3.org/2000/svg" xmlns:xlink="http://www.w3.org/1999/xlink" version="1.1" x="0" y="0" viewBox="24.761856079101562 5 59.5826416015625 90" enable-background="new 0 0 100 100" xml:space="preserve" height="42.709104416013204" width="28.27468068381139" class="icon-s-0" data-fill-palette-color="quaternary" id="s-0"><g fill="#046380" data-fill-palette-color="quaternary"><path d="M73.76 35.603C86.875 48 91.5 66.25 65.633 82.379c3.64-4.928 5.654-9.794 6.096-14.669 0.951-10.516-5.606-19.072-12.835-26.752C48.298 29.7 47.51 18.84 56.413 6.782 54.578 22.641 64.6 26.944 73.76 35.603zM45.288 93.716c6.184-13.053 7.276-20.302-8.197-34.939-4.204-3.977-7.451-8.029-9.71-12.086-2.881 6.435-5.164 20.081 3.244 27.935C36.312 79.938 44.125 83.125 45.288 93.716zM56.709 43.014C48.183 33.954 41.999 21.253 54 5 21.497 17.692 19.625 38.125 39.151 56.597 55.603 72.158 54.75 80.75 48 95 79.875 71.5 68.709 55.764 56.709 43.014z" fill="#046380" data-fill-palette-color="quaternary"></path></g><g display="none" fill="#046380" data-fill-palette-color="quaternary"><path display="inline" d="M54 5C16.75 17.5 14.875 56.5 26.75 70.762c10.558 12.68 15.407 7.949 19.675 20.824" fill="#046380" data-fill-palette-color="quaternary"></path><line display="inline" x1="56.988" y1="5.261" x2="45.528" y2="136.262" fill="#046380" data-fill-palette-color="quaternary"></line><line display="inline" x1="54.131" y1="3.502" x2="42.67" y2="134.502" fill="#046380" data-fill-palette-color="quaternary"></line><path display="inline" d="M42.875 76" fill="#046380" data-fill-palette-color="quaternary"></path></g></svg></g></svg></g></svg></g></svg></g><g></g></svg></g></svg></g></svg></g><defs></defs></svg><rect width="320" height="360" fill="none" stroke="none" visibility="hidden"></rect></g></svg></g></svg>